<svg width="145" height="98" viewBox="0 0 145 98" fill="none" xmlns="http://www.w3.org/2000/svg">
<circle cx="126" cy="46" r="13" fill="#435C76"/>
<circle cx="92.5" cy="73.5" r="15.5" fill="#435C76"/>
<circle cx="57" cy="33.5" r="13" fill="#435C76"/>
<circle cx="20.5" cy="61.5" r="15.5" fill="#435C76"/>
<circle cx="43.5" cy="87.5" r="6" stroke="black" stroke-width="3"/>
<circle cx="99.5" cy="33.5" r="6" stroke="black" stroke-width="3"/>
<line x1="38.9393" y1="83.0607" x2="29.9393" y2="74.0607" stroke="black" stroke-width="3"/>
<line x1="48.937" y1="42.1713" x2="33.937" y2="54.1713" stroke="black" stroke-width="3"/>
<line x1="84.9393" y1="59.0607" x2="67.9393" y2="42.0607" stroke="black" stroke-width="3"/>
<line x1="115.78" y1="54.954" x2="105.961" y2="63.1514" stroke="black" stroke-width="3"/>
<line x1="112.205" y1="42.272" x2="104.205" y2="37.272" stroke="black" stroke-width="3"/>
<path d="M6.42846 54.2222C9.69067 49.744 11.2938 48.5713 15.5498 47.0204C19.8057 45.4694 26.5932 45.0622 31.8321 50.1137C35.9435 55.2119 37.2905 63.0403 35.6954 66.0884C34.1003 69.1365 28.5433 76.1868 23.5737 77.0545C18.6041 77.9221 13.1057 77.3681 9.73276 72.8262C6.3598 68.2843 3.89407 63.6033 4.82208 59.7078" stroke="black" stroke-width="3" stroke-linecap="round"/>
<path d="M77.9971 78.7878C77.009 73.3362 77.2672 71.3667 79.083 67.2168C80.8988 63.067 85.2897 57.875 92.561 57.5718C99.0877 58.1165 105.682 62.5459 106.786 65.8041C107.89 69.0623 109.155 77.9498 106.352 82.1443C103.549 86.3389 99.3528 89.9345 93.7383 89.2396C88.1238 88.5447 83.0349 87.0973 80.8571 83.7368" stroke="black" stroke-width="3" stroke-linecap="round"/>
<path d="M123.916 58.9947C119.585 57.616 118.257 56.6717 115.952 53.7595C113.646 50.8474 111.58 45.6669 114.168 40.2762C117.083 35.7514 122.839 32.6712 125.626 33.1226C128.413 33.574 135.34 36.0725 137.297 39.7177C139.254 43.363 140.239 47.7889 137.567 51.5942C134.895 55.3995 131.882 58.5344 128.606 58.8224" stroke="black" stroke-width="3" stroke-linecap="round"/>
<path d="M56.1699 46.5825C51.7635 45.4667 50.3819 44.6039 47.9054 41.8357C45.429 39.0674 43.0551 34.0206 45.3144 28.484C47.952 23.7921 53.5118 20.3714 56.321 20.6544C59.1301 20.9374 66.1955 23.0148 68.3678 26.5358C70.5402 30.0569 71.7893 34.4155 69.3514 38.3746C66.9135 42.3337 64.0936 45.6441 60.8411 46.1285" stroke="black" stroke-width="3" stroke-linecap="round"/>
<path d="M25.8822 65.1013L24.3904 62.4112L15.1727 63.7366L14.5082 66.7999C14.2485 67.9948 13.9981 68.8149 13.7569 69.26C13.5142 69.6948 13.0526 69.9611 12.3721 70.059C11.7948 70.142 11.254 70.004 10.7498 69.645C10.2457 69.286 9.95508 68.8385 9.87799 68.3023C9.83351 67.993 9.83911 67.6659 9.89477 67.3212C9.95044 66.9764 10.0546 66.4931 10.2072 65.8713L13.8899 50.3138C13.994 49.8674 14.1173 49.334 14.2596 48.7136C14.4108 48.0815 14.5871 47.551 14.7885 47.1222C15.0002 46.6918 15.3004 46.3277 15.6891 46.0298C16.0865 45.72 16.5997 45.52 17.2287 45.4295C17.868 45.3376 18.4167 45.385 18.8751 45.5716C19.3422 45.7465 19.7321 46.0062 20.0447 46.3506C20.3676 46.6935 20.6486 47.0741 20.8876 47.4923C21.1355 47.8986 21.4513 48.4478 21.8349 49.1398L29.8621 62.9189C30.4862 63.9657 30.8346 64.7417 30.9072 65.247C30.9828 65.7728 30.8308 66.2893 30.4512 66.7964C30.0804 67.2917 29.5857 67.5838 28.9671 67.6728C28.6062 67.7247 28.2873 67.7021 28.0102 67.6052C27.7347 67.5185 27.4937 67.3795 27.2873 67.1882C27.0794 66.9865 26.8397 66.6737 26.5683 66.2497C26.3056 65.8139 26.077 65.4311 25.8822 65.1013ZM15.8831 60.1143L22.6572 59.1402L17.8938 50.2748L15.8831 60.1143Z" fill="black"/>
<path d="M28.8822 64.1013L27.3904 61.4112L18.1727 62.7366L17.5082 65.7999C17.2485 66.9948 16.9981 67.8149 16.7569 68.26C16.5142 68.6948 16.0526 68.9611 15.3721 69.059C14.7948 69.142 14.254 69.004 13.7498 68.645C13.2457 68.286 12.9551 67.8385 12.878 67.3023C12.8335 66.993 12.8391 66.6659 12.8948 66.3212C12.9504 65.9764 13.0546 65.4931 13.2072 64.8713L16.8899 49.3138C16.994 48.8674 17.1173 48.334 17.2596 47.7136C17.4108 47.0815 17.5871 46.551 17.7885 46.1222C18.0002 45.6918 18.3004 45.3277 18.6891 45.0298C19.0865 44.72 19.5997 44.52 20.2287 44.4295C20.868 44.3376 21.4167 44.385 21.8751 44.5716C22.3422 44.7465 22.7321 45.0062 23.0447 45.3506C23.3676 45.6935 23.6486 46.0741 23.8876 46.4923C24.1355 46.8986 24.4513 47.4478 24.8349 48.1398L32.8621 61.9189C33.4862 62.9657 33.8346 63.7417 33.9072 64.247C33.9828 64.7728 33.8308 65.2893 33.4512 65.7964C33.0804 66.2917 32.5857 66.5838 31.9671 66.6728C31.6062 66.7247 31.2873 66.7021 31.0102 66.6052C30.7347 66.5185 30.4937 66.3795 30.2873 66.1882C30.0794 65.9865 29.8397 65.6737 29.5683 65.2497C29.3056 64.8139 29.077 64.4311 28.8822 64.1013ZM18.8831 59.1143L25.6572 58.1402L20.8938 49.2748L18.8831 59.1143Z" fill="white"/>
<path d="M60.4517 23.8528C58.8041 24.4286 57.7174 25.3727 57.1915 26.6849C56.6657 27.9972 56.7243 29.5735 57.3674 31.4137C58.018 33.2753 59.0004 34.5407 60.3148 35.2098C61.6505 35.8716 63.1422 35.9145 64.7898 35.3387C65.6671 35.0321 66.3642 34.6565 66.8811 34.2117C67.4194 33.7595 67.9143 33.2864 68.366 32.7924C68.8344 32.9648 69.2397 33.2314 69.5819 33.592C69.9379 33.9238 70.2132 34.3679 70.4076 34.9242C70.7142 35.8015 70.4838 36.7224 69.7163 37.6869C68.9628 38.6226 67.5911 39.4381 65.6011 40.1335C64.1674 40.6345 62.7483 40.9024 61.3438 40.937C59.9393 40.9716 58.6204 40.7362 57.3873 40.2307C56.1467 39.7038 55.0239 38.8957 54.0189 37.8062C53.0278 36.6879 52.2182 35.2301 51.59 33.4327C51.0068 31.7637 50.7513 30.2082 50.8237 28.7663C50.9099 27.2954 51.2491 25.9644 51.8412 24.773C52.4547 23.5741 53.2928 22.5369 54.3554 21.6613C55.4181 20.7857 56.6448 20.1049 58.0357 19.6189C60.0042 18.9309 61.6356 18.7209 62.9299 18.989C64.2455 19.2495 65.079 19.8827 65.4305 20.8884C65.6249 21.4447 65.6541 21.9748 65.518 22.4785C65.3819 22.9823 65.1731 23.4154 64.8916 23.7779C64.2081 23.6086 63.5006 23.5077 62.7689 23.4753C62.0586 23.4353 61.2862 23.5612 60.4517 23.8528Z" fill="black"/>
<path d="M63.4517 20.8528C61.8041 21.4286 60.7174 22.3727 60.1915 23.6849C59.6657 24.9972 59.7243 26.5735 60.3674 28.4137C61.018 30.2753 62.0004 31.5407 63.3148 32.2098C64.6505 32.8716 66.1422 32.9145 67.7898 32.3387C68.6671 32.0321 69.3642 31.6565 69.8811 31.2117C70.4194 30.7595 70.9143 30.2864 71.366 29.7924C71.8344 29.9648 72.2397 30.2314 72.5819 30.592C72.9379 30.9238 73.2132 31.3679 73.4076 31.9242C73.7142 32.8015 73.4838 33.7224 72.7163 34.6869C71.9628 35.6226 70.5911 36.4381 68.6011 37.1335C67.1674 37.6345 65.7483 37.9024 64.3438 37.937C62.9393 37.9716 61.6204 37.7362 60.3873 37.2307C59.1467 36.7038 58.0239 35.8957 57.0189 34.8062C56.0278 33.6879 55.2182 32.2301 54.59 30.4327C54.0068 28.7637 53.7513 27.2082 53.8237 25.7663C53.9099 24.2954 54.2491 22.9644 54.8412 21.773C55.4547 20.5741 56.2928 19.5369 57.3554 18.6613C58.4181 17.7857 59.6448 17.1049 61.0357 16.6189C63.0042 15.9309 64.6356 15.7209 65.9299 15.989C67.2455 16.2495 68.079 16.8827 68.4305 17.8884C68.6249 18.4447 68.6541 18.9748 68.518 19.4785C68.3819 19.9823 68.1731 20.4154 67.8916 20.7779C67.2081 20.6086 66.5006 20.5077 65.7689 20.4753C65.0586 20.4353 64.2862 20.5612 63.4517 20.8528Z" fill="white"/>
<path d="M93.1491 80.9072L88.9146 81.2701L89.4683 87.7308C89.5475 88.6545 89.3896 89.3737 88.9946 89.8885C88.5997 90.4033 88.07 90.6891 87.4058 90.7461C86.7104 90.8057 86.13 90.6202 85.6644 90.1896C85.198 89.7487 84.9256 89.0715 84.8473 88.1582L83.3395 70.5665C83.2523 69.5494 83.4236 68.8029 83.8533 68.3269C84.2829 67.851 85.0063 67.5694 86.0234 67.4823L91.9548 66.9739C93.7088 66.8235 95.0696 66.8428 96.0372 67.0317C96.9935 67.2111 97.8347 67.5729 98.5609 68.117C99.2975 68.6603 99.8796 69.3527 100.307 70.1942C100.735 71.0358 100.995 72.0014 101.089 73.0912C101.288 75.416 100.723 77.2417 99.394 78.5684C98.0641 79.8847 95.9824 80.6643 93.1491 80.9072ZM91.1315 70.5416L88.0179 70.8085L88.6157 77.7829L91.7293 77.516C92.819 77.4226 93.7174 77.2306 94.4243 76.94C95.1416 76.6485 95.67 76.2269 96.0096 75.675C96.3491 75.1232 96.4828 74.4269 96.4108 73.5862C96.3245 72.5795 95.9584 71.785 95.3126 71.2026C94.5905 70.5849 93.1968 70.3646 91.1315 70.5416Z" fill="black"/>
<path d="M96.1491 80.9072L91.9146 81.2701L92.4683 87.7308C92.5475 88.6545 92.3896 89.3737 91.9946 89.8885C91.5997 90.4033 91.07 90.6891 90.4058 90.7461C89.7104 90.8057 89.13 90.6202 88.6644 90.1896C88.198 89.7487 87.9256 89.0715 87.8473 88.1582L86.3395 70.5665C86.2523 69.5494 86.4236 68.8029 86.8533 68.3269C87.2829 67.851 88.0063 67.5694 89.0234 67.4823L94.9548 66.9739C96.7088 66.8235 98.0696 66.8428 99.0372 67.0317C99.9935 67.2111 100.835 67.5729 101.561 68.117C102.298 68.6603 102.88 69.3527 103.307 70.1942C103.735 71.0358 103.995 72.0014 104.089 73.0912C104.288 75.416 103.723 77.2417 102.394 78.5684C101.064 79.8847 98.9824 80.6643 96.1491 80.9072ZM94.1315 70.5416L91.0179 70.8085L91.6157 77.7829L94.7293 77.516C95.819 77.4226 96.7174 77.2306 97.4243 76.94C98.1416 76.6485 98.67 76.2269 99.0096 75.675C99.3491 75.1232 99.4828 74.4269 99.4108 73.5862C99.3245 72.5795 98.9584 71.785 98.3126 71.2026C97.5905 70.5849 96.1968 70.3646 94.1315 70.5416Z" fill="white"/>
<path d="M129.974 36.5667C128.241 36.7766 126.978 37.4662 126.183 38.6356C125.389 39.8049 125.109 41.3572 125.343 43.2924C125.58 45.2501 126.269 46.6964 127.41 47.6313C128.573 48.5635 130.021 48.9247 131.754 48.7148C132.677 48.603 133.438 48.3852 134.038 48.0614C134.661 47.7348 135.245 47.3786 135.792 46.9927C136.213 47.2614 136.552 47.6085 136.809 48.034C137.086 48.4343 137.259 48.9269 137.33 49.512C137.442 50.4346 137.02 51.2848 136.064 52.0628C135.128 52.8155 133.613 53.3186 131.52 53.5722C130.013 53.7548 128.569 53.7127 127.19 53.446C125.81 53.1793 124.572 52.6671 123.476 51.9095C122.377 51.1294 121.453 50.0997 120.704 48.8204C119.976 47.5159 119.497 45.9186 119.268 44.0284C119.055 42.2732 119.138 40.6991 119.518 39.3061C119.917 37.8878 120.533 36.6601 121.366 35.623C122.222 34.5832 123.263 33.7494 124.488 33.1215C125.713 32.4935 127.057 32.091 128.52 31.9138C130.59 31.663 132.229 31.807 133.436 32.3458C134.665 32.8818 135.344 33.6786 135.472 34.7362C135.543 35.3213 135.458 35.8453 135.217 36.3083C134.976 36.7713 134.68 37.1497 134.327 37.4436C133.696 37.1319 133.026 36.8819 132.318 36.6937C131.633 36.5027 130.852 36.4604 129.974 36.5667Z" fill="black"/>
<path d="M133.547 34.2781C131.814 34.488 130.55 35.1777 129.756 36.347C128.961 37.5164 128.681 39.0687 128.916 41.0038C129.153 42.9615 129.842 44.4078 130.983 45.3428C132.146 46.275 133.594 46.6361 135.326 46.4263C136.249 46.3145 137.01 46.0967 137.61 45.7728C138.233 45.4463 138.818 45.09 139.365 44.7041C139.785 44.9728 140.124 45.3199 140.381 45.7454C140.658 46.1457 140.832 46.6384 140.903 47.2234C141.015 48.146 140.592 48.9963 139.636 49.7742C138.7 50.527 137.186 51.0301 135.093 51.2836C133.585 51.4662 132.142 51.4242 130.762 51.1575C129.383 50.8908 128.145 50.3786 127.049 49.6209C125.949 48.8408 125.026 47.8111 124.277 46.5318C123.548 45.2274 123.069 43.63 122.84 41.7398C122.628 39.9847 122.711 38.4106 123.09 37.0175C123.489 35.5992 124.105 34.3716 124.939 33.3345C125.794 32.2947 126.835 31.4608 128.06 30.8329C129.286 30.205 130.63 29.8024 132.092 29.6252C134.163 29.3745 135.801 29.5184 137.008 30.0572C138.237 30.5933 138.916 31.3901 139.044 32.4477C139.115 33.0327 139.03 33.5568 138.79 34.0197C138.549 34.4827 138.252 34.8611 137.9 35.155C137.268 34.8433 136.599 34.5934 135.891 34.4051C135.206 34.2142 134.424 34.1718 133.547 34.2781Z" fill="white"/>
</svg>
